<?xml version="1.0" standalone="no"?>
<!DOCTYPE svg PUBLIC "-//W3C//DTD SVG 20010904//EN"
 "http://www.w3.org/TR/2001/REC-SVG-20010904/DTD/svg10.dtd">
<svg version="1.0" xmlns="http://www.w3.org/2000/svg"
 width="498.000000pt" height="498.000000pt" viewBox="0 0 498.000000 498.000000"
 preserveAspectRatio="xMidYMid meet">

<g transform="translate(0.000000,498.000000) scale(0.100000,-0.100000)"
fill="#000000" stroke="none">
<path d="M0 3865 l0 -1115 140 0 140 0 0 975 0 975 975 0 975 0 0 140 0 140
-1115 0 -1115 0 0 -1115z"/>
<path d="M2730 4840 l0 -140 975 0 975 0 0 -975 0 -975 150 0 150 0 0 1115 0
1115 -1125 0 -1125 0 0 -140z"/>
<path d="M2408 4450 c-102 -30 -181 -150 -164 -245 6 -30 4 -32 -36 -44 -58
-18 -102 -53 -135 -108 -22 -38 -27 -59 -27 -112 1 -137 94 -231 229 -231 l55
0 -2 -241 -3 -241 -70 -22 c-234 -74 -411 -251 -486 -486 l-23 -70 -248 0
-248 0 6 43 c18 132 -94 257 -232 257 -105 0 -211 -87 -227 -186 l-7 -39 -57
-1 c-130 -1 -223 -98 -223 -229 0 -134 94 -228 227 -229 54 -1 63 -4 63 -19 0
-25 27 -77 59 -110 45 -49 98 -71 172 -72 56 0 73 4 115 30 68 43 107 108 112
191 l4 64 243 0 242 0 17 -62 c64 -230 274 -440 504 -504 l62 -17 0 -241 0
-241 -62 3 c-133 7 -238 -92 -238 -223 0 -69 23 -125 66 -169 32 -32 98 -65
130 -66 19 0 22 -7 26 -65 9 -112 72 -187 178 -215 141 -37 281 73 283 222 l0
58 36 10 c137 37 206 200 140 331 -38 77 -156 140 -229 124 l-30 -7 0 239 0
239 73 23 c230 73 409 252 483 486 l22 70 245 3 246 2 -6 -55 c-17 -165 136
-290 300 -244 71 19 143 102 157 179 5 30 9 35 30 32 13 -1 47 2 76 8 144 30
224 187 163 320 -39 86 -103 129 -204 138 l-61 4 -17 49 c-30 83 -126 149
-217 149 -124 0 -230 -105 -230 -228 l0 -52 -244 0 -244 0 -6 38 c-4 20 -30
84 -58 141 -43 91 -62 117 -137 192 -75 75 -101 94 -192 137 -57 28 -121 54
-141 58 l-38 6 0 248 0 248 45 -6 c62 -7 126 14 176 56 119 102 103 289 -31
370 -30 17 -67 32 -82 32 -27 0 -28 2 -28 48 -2 163 -151 278 -302 232z m-78
-1525 l0 -275 -275 0 c-240 0 -275 2 -275 15 0 9 14 51 30 94 63 163 188 299
350 381 40 21 143 58 163 59 4 1 7 -123 7 -274z m382 249 c204 -73 370 -238
442 -442 14 -40 26 -75 26 -78 0 -2 -124 -4 -275 -4 l-275 0 0 275 c0 151 2
275 4 275 3 0 38 -12 78 -26z m-382 -1103 l0 -280 -52 16 c-129 38 -274 133
-353 231 -54 67 -133 221 -142 275 l-6 37 277 0 276 0 0 -279z m844 252 c-24
-102 -91 -225 -169 -310 -88 -98 -237 -188 -347 -210 l-28 -5 0 276 0 276 275
0 275 0 -6 -27z"/>
<path d="M0 1125 l0 -1125 1115 0 1115 0 0 150 0 150 -975 0 -975 0 0 975 0
975 -140 0 -140 0 0 -1125z"/>
<path d="M4680 1275 l0 -975 -975 0 -975 0 0 -150 0 -150 1125 0 1125 0 0
1125 0 1125 -150 0 -150 0 0 -975z"/>
</g>
</svg>
